<?xml version="1.0"?>
<svg xmlns="http://www.w3.org/2000/svg" xmlns:xlink="http://www.w3.org/1999/xlink" xmlns:svgjs="http://svgjs.com/svgjs" version="1.1" width="512" height="512" x="0" y="0" viewBox="0 0 512 512" style="enable-background:new 0 0 512 512" xml:space="preserve" class=""><g>
<path xmlns="http://www.w3.org/2000/svg" style="" d="M203.034,420.458c0,50.556,40.986,91.542,91.542,91.542h137.975V286.985  c0.009-20.056-6.806-39.512-19.332-55.172l-86.599-108.226H203.034V420.458z" fill="#fec9a3" data-original="#fec9a3" class=""/>
<path xmlns="http://www.w3.org/2000/svg" style="" d="M114.759,0H291.31c19.5,0,35.31,15.81,35.31,35.31v317.793c0,19.5-15.81,35.31-35.31,35.31H114.759  c-19.5,0-35.31-15.81-35.31-35.31V35.31C79.448,15.81,95.258,0,114.759,0z" fill="#4398d1" data-original="#4398d1" class=""/>
<path xmlns="http://www.w3.org/2000/svg" style="" d="M79.448,341.804v11.299c0,19.5,15.81,35.31,35.31,35.31H291.31c19.5,0,35.31-15.81,35.31-35.31  V92.954C274.114,201.022,187.162,288.565,79.448,341.804z" fill="#3e8cc7" data-original="#3e8cc7"/>
<rect xmlns="http://www.w3.org/2000/svg" x="203.034" y="388.414" style="" width="97.103" height="26.483" fill="#f7bb8f" data-original="#f7bb8f"/>
<rect xmlns="http://www.w3.org/2000/svg" x="229.517" style="" width="44.138" height="388.414" fill="#87ced9" data-original="#87ced9"/>
<g xmlns="http://www.w3.org/2000/svg">
	<rect x="114.759" y="35.31" style="" width="17.655" height="114.759" fill="#126099" data-original="#126099"/>
	<rect x="158.897" y="35.31" style="" width="17.655" height="70.621" fill="#126099" data-original="#126099"/>
</g>
<rect xmlns="http://www.w3.org/2000/svg" x="123.586" y="291.31" style="" width="52.966" height="52.966" fill="#d9d9d9" data-original="#d9d9d9"/>
<path xmlns="http://www.w3.org/2000/svg" style="" d="M361.931,326.621L243.288,200.563c-12.156-12.862-32.433-13.444-45.303-1.289  c-0.203,0.194-0.406,0.388-0.6,0.583l0,0c-11.75,11.785-12.553,30.596-1.854,43.343l78.124,92.248v30.543  c-0.009,45.365,28.142,85.963,70.621,101.87h17.655V326.621z" fill="#fec9a3" data-original="#fec9a3" class=""/>
<g xmlns="http://www.w3.org/2000/svg">
</g>
<g xmlns="http://www.w3.org/2000/svg">
</g>
<g xmlns="http://www.w3.org/2000/svg">
</g>
<g xmlns="http://www.w3.org/2000/svg">
</g>
<g xmlns="http://www.w3.org/2000/svg">
</g>
<g xmlns="http://www.w3.org/2000/svg">
</g>
<g xmlns="http://www.w3.org/2000/svg">
</g>
<g xmlns="http://www.w3.org/2000/svg">
</g>
<g xmlns="http://www.w3.org/2000/svg">
</g>
<g xmlns="http://www.w3.org/2000/svg">
</g>
<g xmlns="http://www.w3.org/2000/svg">
</g>
<g xmlns="http://www.w3.org/2000/svg">
</g>
<g xmlns="http://www.w3.org/2000/svg">
</g>
<g xmlns="http://www.w3.org/2000/svg">
</g>
<g xmlns="http://www.w3.org/2000/svg">
</g>
</g></svg>
