<?xml version="1.0"?>
<svg xmlns="http://www.w3.org/2000/svg" xmlns:xlink="http://www.w3.org/1999/xlink" xmlns:svgjs="http://svgjs.com/svgjs" version="1.1" width="512" height="512" x="0" y="0" viewBox="0 0 335.412 335.412" style="enable-background:new 0 0 512 512" xml:space="preserve" class=""><g>
<g xmlns="http://www.w3.org/2000/svg">
	<polygon style="" points="230.922,125.91 230.922,209.502 97.176,209.502 97.176,266.971 0,167.706 97.176,68.441    97.176,125.91  " fill="#ffeb07" data-original="#00efd1" class=""/>
	<g>
		<path style="" d="M262.269,115.461L262.269,115.461c5.771,0,10.449,4.678,10.449,10.449v83.592    c0,5.771-4.678,10.449-10.449,10.449l0,0c-5.771,0-10.449-4.678-10.449-10.449V125.91    C251.82,120.139,256.499,115.461,262.269,115.461z" fill="#ffd600" data-original="#00acea" class=""/>
		<path style="" d="M293.616,115.461L293.616,115.461c5.771,0,10.449,4.678,10.449,10.449v83.592    c0,5.771-4.678,10.449-10.449,10.449l0,0c-5.771,0-10.449-4.678-10.449-10.449V125.91    C283.167,120.139,287.846,115.461,293.616,115.461z" fill="#ffd600" data-original="#00acea" class=""/>
		<path style="" d="M324.963,115.461L324.963,115.461c5.771,0,10.449,4.678,10.449,10.449v83.592    c0,5.771-4.678,10.449-10.449,10.449l0,0c-5.771,0-10.449-4.678-10.449-10.449V125.91    C314.514,120.139,319.192,115.461,324.963,115.461z" fill="#ffd600" data-original="#00acea" class=""/>
	</g>
</g>
<g xmlns="http://www.w3.org/2000/svg">
</g>
<g xmlns="http://www.w3.org/2000/svg">
</g>
<g xmlns="http://www.w3.org/2000/svg">
</g>
<g xmlns="http://www.w3.org/2000/svg">
</g>
<g xmlns="http://www.w3.org/2000/svg">
</g>
<g xmlns="http://www.w3.org/2000/svg">
</g>
<g xmlns="http://www.w3.org/2000/svg">
</g>
<g xmlns="http://www.w3.org/2000/svg">
</g>
<g xmlns="http://www.w3.org/2000/svg">
</g>
<g xmlns="http://www.w3.org/2000/svg">
</g>
<g xmlns="http://www.w3.org/2000/svg">
</g>
<g xmlns="http://www.w3.org/2000/svg">
</g>
<g xmlns="http://www.w3.org/2000/svg">
</g>
<g xmlns="http://www.w3.org/2000/svg">
</g>
<g xmlns="http://www.w3.org/2000/svg">
</g>
</g></svg>
