<?xml version="1.0" encoding="utf-8"?>
<!-- Generator: Adobe Illustrator 23.0.2, SVG Export Plug-In . SVG Version: 6.00 Build 0)  -->
<svg version="1.1" id="Payments" xmlns="http://www.w3.org/2000/svg" xmlns:xlink="http://www.w3.org/1999/xlink" x="0px" y="0px"
	 width="195px" height="195px" viewBox="0 0 195 195" style="enable-background:new 0 0 195 195;" xml:space="preserve">
<style type="text/css">
	.st0{opacity:0.35;fill:#A1DBF4;}
	.st1{fill:#FFFFFF;stroke:#14416D;stroke-width:2;stroke-miterlimit:10;}
	.st2{fill:#14416D;}
	.st3{fill:#FFFFFF;}
	.st4{fill:none;stroke:#14416D;stroke-width:1.25;stroke-miterlimit:10;}
	.st5{fill:#14416D;stroke:#14416D;stroke-miterlimit:10;}
	.st6{fill:none;stroke:#F58025;stroke-width:2.8784;stroke-linecap:round;stroke-linejoin:round;stroke-miterlimit:10;}
	.st7{fill:#F58025;}
	.st8{fill:#CC6633;}
	.st9{fill:none;stroke:#CC6633;stroke-width:2.8784;stroke-linecap:round;stroke-linejoin:round;}
	.st10{fill:#FBB03F;}
	.st11{fill:#FBB03F;stroke:#F8DCB4;stroke-width:2.0092;stroke-linecap:round;stroke-linejoin:round;}
	.st12{fill:none;stroke:#F8DCB4;stroke-width:2.0092;stroke-linecap:round;stroke-linejoin:round;}
</style>
<g>
	<circle class="st0" cx="97.62" cy="97.24" r="90"/>
	<g>
		<g>
			<g>
				<path class="st1" d="M115.92,162.92H60.91c-4.58,0-8.21-3.75-8.21-8.21V39.16c0-4.58,3.75-8.21,8.21-8.21h55.02
					c4.58,0,8.21,3.75,8.21,8.21v115.55C124.14,159.29,120.5,162.92,115.92,162.92z"/>
			</g>
			<path class="st2" d="M91.69,42.22H74.56c-0.59,0-1.06-0.47-1.06-1.06c0-0.59,0.47-1.06,1.06-1.06h17.13
				c0.59,0,1.06,0.47,1.06,1.06C92.74,41.87,92.28,42.22,91.69,42.22z"/>
			<path class="st2" d="M106,42.22h-3.17c-0.59,0-1.06-0.47-1.06-1.06c0-0.59,0.47-1.06,1.06-1.06H106c0.59,0,1.06,0.47,1.06,1.06
				C107.06,41.87,106.47,42.22,106,42.22z"/>
			<g>
				<circle class="st3" cx="88.47" cy="151.3" r="5.04"/>
				<path class="st4" d="M88.47,157.4c-3.28,0-6.1-2.7-6.1-6.1s2.7-6.1,6.1-6.1c3.28,0,6.1,2.7,6.1,6.1S91.76,157.4,88.47,157.4z"/>
			</g>
		</g>
		<g>
			<rect x="57.13" y="52.11" class="st5" width="62.7" height="86.7"/>
		</g>
	</g>
	<g>
		<g>
			<g>
				<line class="st6" x1="17.81" y1="94.6" x2="5.73" y2="94.6"/>
				<line class="st6" x1="22.74" y1="112.9" x2="17.46" y2="115.95"/>
				<line class="st6" x1="36.11" y1="126.27" x2="30.01" y2="136.83"/>
				<line class="st6" x1="36.11" y1="62.93" x2="30.01" y2="52.37"/>
				<line class="st6" x1="22.74" y1="76.3" x2="17.46" y2="73.25"/>
			</g>
			<g>
				<path class="st7" d="M89.15,122.4c-2.6,0-5.65-0.31-7.42-1.84c-1.91-1.66-2.44-4.64-2.44-7.19V75.71c0-2.46-0.3-5.76,1.49-7.4
					s5.67-1.63,8.37-1.63h73.79c5.4,0,9.85,2.11,9.85,9.03v37.66c0,7.51-4.46,9.03-9.85,9.03H89.15z"/>
				<rect x="79.88" y="80.64" class="st8" width="92.91" height="9.27"/>
				<path class="st9" d="M168.33,66.68H84.34c-2.46,0-4.46,1.99-4.46,4.46v46.81c0,2.46,1.99,4.46,4.46,4.46h83.99
					c2.46,0,4.46-1.99,4.46-4.46V71.14C172.79,68.68,170.79,66.68,168.33,66.68z"/>
				<line class="st9" x1="91.49" y1="110.2" x2="127.51" y2="110.2"/>
				<line class="st9" x1="91.49" y1="103.87" x2="117.42" y2="103.87"/>
				<path class="st8" d="M158.01,111.15h-12.2c-1.76,0-3.17-1.41-3.17-3.17l0,0c0-1.76,1.41-3.17,3.17-3.17h12.2
					c1.76,0,3.17,1.41,3.17,3.17l0,0C161.17,109.75,159.77,111.15,158.01,111.15z"/>
			</g>
			<g>
				<circle class="st10" cx="151.84" cy="63.5" r="18"/>
				<circle class="st11" cx="151.84" cy="63.5" r="13.67"/>
				<g>
					<path class="st12" d="M148.57,66.54c0,1.82,1.44,3.27,3.27,3.27s3.27-1.44,3.27-3.27c0-3.27-6-3.27-6-6.53
						c0-1.44,0.91-2.73,2.73-2.73s2.73,1.37,2.73,2.73"/>
					<line class="st12" x1="151.84" y1="71.47" x2="151.84" y2="69.8"/>
					<line class="st12" x1="151.84" y1="57.2" x2="151.84" y2="55.6"/>
				</g>
			</g>
		</g>
	</g>
</g>
</svg>
