<?xml version="1.0" encoding="iso-8859-1"?>
<!-- Generator: Adobe Illustrator 16.0.0, SVG Export Plug-In . SVG Version: 6.00 Build 0)  -->
<!DOCTYPE svg PUBLIC "-//W3C//DTD SVG 1.1//EN" "http://www.w3.org/Graphics/SVG/1.1/DTD/svg11.dtd">
<svg version="1.1" id="Capa_1" xmlns="http://www.w3.org/2000/svg" xmlns:xlink="http://www.w3.org/1999/xlink" x="0px" y="0px"
	 width="318.6px" height="318.6px" viewBox="0 0 318.6 318.6" style="enable-background:new 0 0 318.6 318.6;" xml:space="preserve"
	>
<g>
	<g>
		<path d="M28.608,283.5h261.388c15.794,0,28.604-12.81,28.604-28.608v-93.983c0-15.799-12.81-28.608-28.608-28.608h-32.058
			l-4.683-97.2H65.027l-4.683,97.2H28.608C12.809,132.3,0,145.109,0,160.908v93.988C0,270.69,12.809,283.5,28.608,283.5z
			 M253.8,267.3h-5.4h-189v-27v-5.4h194.4V267.3z M295.023,178.453c4.213,0,7.63,3.417,7.63,7.63c0,4.219-3.417,7.631-7.63,7.631
			c-4.214,0-7.631-3.417-7.631-7.631C287.392,181.87,290.809,178.453,295.023,178.453z M48.6,153.899h10.702h2.835h2.57l1.042-21.6
			l4.424-91.8h177.942l4.419,91.8l1.044,21.6h2.573h2.827H270c2.979,0,5.399,2.416,5.399,5.4c0,2.984-2.42,5.4-5.399,5.4H48.6
			c-2.979,0-5.4-2.416-5.4-5.4C43.2,156.315,45.621,153.899,48.6,153.899z"/>
		<rect x="91.8" y="67.5" width="135" height="10.8"/>
		<rect x="91.8" y="94.5" width="135" height="10.8"/>
		<polygon points="102.6,251.1 210.6,251.1 210.6,261.899 248.4,261.899 248.4,240.3 64.8,240.3 64.8,261.899 102.6,261.899 		"/>
	</g>
</g>
<g>
</g>
<g>
</g>
<g>
</g>
<g>
</g>
<g>
</g>
<g>
</g>
<g>
</g>
<g>
</g>
<g>
</g>
<g>
</g>
<g>
</g>
<g>
</g>
<g>
</g>
<g>
</g>
<g>
</g>
</svg>
