<?xml version="1.0"?>
<svg xmlns="http://www.w3.org/2000/svg" xmlns:xlink="http://www.w3.org/1999/xlink" xmlns:svgjs="http://svgjs.com/svgjs" version="1.1" width="512" height="512" x="0" y="0" viewBox="0 0 335.412 335.412" style="enable-background:new 0 0 512 512" xml:space="preserve" class=""><g>
<g xmlns="http://www.w3.org/2000/svg">
	<polygon style="" points="238.237,68.441 335.412,167.706 238.237,266.971 238.237,209.502 104.49,209.502    104.49,125.91 238.237,125.91  " fill="#ffeb07" data-original="#00efd1" class=""/>
	<g>
		<path style="" d="M73.143,115.461L73.143,115.461c5.771,0,10.449,4.678,10.449,10.449v83.592    c0,5.771-4.678,10.449-10.449,10.449l0,0c-5.771,0-10.449-4.678-10.449-10.449V125.91    C62.694,120.139,67.372,115.461,73.143,115.461z" fill="#ffd600" data-original="#00acea" class=""/>
		<path style="" d="M41.796,115.461L41.796,115.461c5.771,0,10.449,4.678,10.449,10.449v83.592    c0,5.771-4.678,10.449-10.449,10.449l0,0c-5.771,0-10.449-4.678-10.449-10.449V125.91    C31.347,120.139,36.025,115.461,41.796,115.461z" fill="#ffd600" data-original="#00acea" class=""/>
		<path style="" d="M10.449,115.461L10.449,115.461c5.771,0,10.449,4.678,10.449,10.449v83.592    c0,5.771-4.678,10.449-10.449,10.449l0,0C4.678,219.951,0,215.273,0,209.502V125.91C0,120.139,4.678,115.461,10.449,115.461z" fill="#ffd600" data-original="#00acea" class=""/>
	</g>
</g>
<g xmlns="http://www.w3.org/2000/svg">
</g>
<g xmlns="http://www.w3.org/2000/svg">
</g>
<g xmlns="http://www.w3.org/2000/svg">
</g>
<g xmlns="http://www.w3.org/2000/svg">
</g>
<g xmlns="http://www.w3.org/2000/svg">
</g>
<g xmlns="http://www.w3.org/2000/svg">
</g>
<g xmlns="http://www.w3.org/2000/svg">
</g>
<g xmlns="http://www.w3.org/2000/svg">
</g>
<g xmlns="http://www.w3.org/2000/svg">
</g>
<g xmlns="http://www.w3.org/2000/svg">
</g>
<g xmlns="http://www.w3.org/2000/svg">
</g>
<g xmlns="http://www.w3.org/2000/svg">
</g>
<g xmlns="http://www.w3.org/2000/svg">
</g>
<g xmlns="http://www.w3.org/2000/svg">
</g>
<g xmlns="http://www.w3.org/2000/svg">
</g>
</g></svg>
