<?xml version="1.0"?>
<svg xmlns="http://www.w3.org/2000/svg" xmlns:xlink="http://www.w3.org/1999/xlink" xmlns:svgjs="http://svgjs.com/svgjs" version="1.1" width="512" height="512" x="0" y="0" viewBox="0 0 512 512" style="enable-background:new 0 0 512 512" xml:space="preserve" class=""><g>
<circle xmlns="http://www.w3.org/2000/svg" style="" cx="256" cy="256" r="256" fill="#263238" data-original="#2196f3" class=""/>
<path xmlns="http://www.w3.org/2000/svg" style="" d="M336,192h-17.632c-2.4-11.904-7.712-22.656-14.784-32H336c8.832,0,16-7.168,16-16s-7.168-16-16-16  h-96h-64c-8.832,0-16,7.168-16,16s7.168,16,16,16h64c20.832,0,38.432,13.408,45.056,32H176c-8.832,0-16,7.168-16,16s7.168,16,16,16  h109.056c-6.624,18.592-24.224,32-45.056,32h-64c-6.464,0-12.32,3.904-14.784,9.888c-2.496,5.984-1.12,12.832,3.456,17.44l128,128  C295.808,414.432,299.904,416,304,416s8.192-1.568,11.328-4.672c6.24-6.24,6.24-16.384,0-22.624L214.624,288H240  c38.624,0,70.944-27.52,78.368-64H336c8.832,0,16-7.168,16-16S344.832,192,336,192z" fill="#f44336" data-original="#fafafa" class=""/>
<g xmlns="http://www.w3.org/2000/svg">
</g>
<g xmlns="http://www.w3.org/2000/svg">
</g>
<g xmlns="http://www.w3.org/2000/svg">
</g>
<g xmlns="http://www.w3.org/2000/svg">
</g>
<g xmlns="http://www.w3.org/2000/svg">
</g>
<g xmlns="http://www.w3.org/2000/svg">
</g>
<g xmlns="http://www.w3.org/2000/svg">
</g>
<g xmlns="http://www.w3.org/2000/svg">
</g>
<g xmlns="http://www.w3.org/2000/svg">
</g>
<g xmlns="http://www.w3.org/2000/svg">
</g>
<g xmlns="http://www.w3.org/2000/svg">
</g>
<g xmlns="http://www.w3.org/2000/svg">
</g>
<g xmlns="http://www.w3.org/2000/svg">
</g>
<g xmlns="http://www.w3.org/2000/svg">
</g>
<g xmlns="http://www.w3.org/2000/svg">
</g>
</g></svg>
