<?xml version="1.0" encoding="iso-8859-1"?>
<!-- Generator: Adobe Illustrator 19.0.0, SVG Export Plug-In . SVG Version: 6.00 Build 0)  -->
<svg version="1.1" id="Layer_1" xmlns="http://www.w3.org/2000/svg" xmlns:xlink="http://www.w3.org/1999/xlink" x="0px" y="0px"
	 viewBox="0 0 493.771 493.771" style="enable-background:new 0 0 493.771 493.771;" xml:space="preserve">
<path style="fill:#114935;" d="M254.118,85.014c-5.033,0-10.059-1.922-13.919-5.766c-7.704-7.688-7.704-20.157,0-27.845
	l45.607-45.631c7.696-7.696,20.165-7.696,27.853,0c7.688,7.688,7.688,20.157,0,27.845l-45.607,45.631
	C264.217,83.092,259.167,85.014,254.118,85.014z"/>
<polyline style="fill:#15ED0F;" points="253.315,66.125 427.655,240.449 382.024,286.08 "/>
<path style="fill:#114935;" d="M382.024,305.772c-5.041,0-10.075-1.922-13.934-5.766c-7.688-7.696-7.688-20.157,0-27.845
	l31.713-31.705L239.381,80.043c-7.688-7.688-7.688-20.157,0-27.845c7.696-7.696,20.165-7.696,27.861,0l174.34,174.324
	c3.678,3.694,5.758,8.696,5.758,13.926s-2.087,10.232-5.758,13.926l-45.647,45.631C392.098,303.842,387.057,305.772,382.024,305.772
	z"/>
<path style="fill:#114935;" d="M194.025,493.771c-5.041,0-10.075-1.922-13.934-5.766c-7.688-7.696-7.688-20.165,0-27.845
	l45.631-45.623c7.696-7.696,20.165-7.696,27.861,0c7.68,7.696,7.68,20.165,0,27.845l-45.631,45.623
	C204.1,491.849,199.059,493.771,194.025,493.771z"/>
<polyline style="fill:#15ED0F;" points="240.46,427.644 66.12,253.304 111.759,207.673 "/>
<path style="fill:#114935;" d="M240.46,447.336c-5.049,0-10.082-1.922-13.934-5.766L52.209,267.231
	c-7.688-7.696-7.688-20.157,0-27.845l45.623-45.631c7.704-7.696,20.157-7.696,27.853,0c7.696,7.696,7.696,20.157,0,27.845
	l-31.712,31.705L254.37,413.726c7.696,7.696,7.696,20.165,0,27.845C250.519,445.414,245.493,447.336,240.46,447.336z"/>
<path style="fill:#114935;" d="M474.074,319.447c-5.033,0-10.067-1.922-13.919-5.766l-45.647-45.639
	c-7.704-7.688-7.704-20.157,0-27.845c7.672-7.696,20.149-7.696,27.845,0L488,285.836c7.688,7.688,7.688,20.157,0,27.845
	C484.172,317.525,479.123,319.447,474.074,319.447z"/>
<polyline style="fill:#15ED0F;" points="427.655,253.32 253.323,427.644 207.684,382.021 "/>
<path style="fill:#114935;" d="M253.323,447.336c-5.033,0-10.075-1.922-13.919-5.758l-45.655-45.623
	c-7.688-7.696-7.688-20.165,0-27.853c7.696-7.696,20.165-7.688,27.845-0.008l31.72,31.705l160.421-160.398
	c7.68-7.696,20.149-7.696,27.845,0c7.68,7.696,7.68,20.157,0,27.845L267.249,441.57
	C263.405,445.414,258.372,447.336,253.323,447.336z"/>
<path style="fill:#114935;" d="M65.324,259.33c-5.033,0-10.075-1.922-13.911-5.766L5.783,207.941
	c-7.704-7.688-7.704-20.157,0-27.845c7.672-7.696,20.149-7.696,27.837,0l45.631,45.623c7.696,7.688,7.696,20.157,0,27.845
	C75.415,257.408,70.366,259.33,65.324,259.33z"/>
<polyline style="fill:#15ED0F;" points="66.12,240.465 240.46,66.125 286.075,111.764 "/>
<path style="fill:#114935;" d="M66.12,260.157c-5.033,0-10.075-1.922-13.919-5.766c-7.688-7.688-7.688-20.157,0-27.845
	L226.533,52.198c3.686-3.694,8.696-5.766,13.934-5.766l0,0c5.215,0,10.216,2.08,13.911,5.766l45.639,45.639
	c7.688,7.696,7.688,20.165,0,27.845c-7.696,7.696-20.165,7.696-27.845,0l-31.697-31.705L80.054,254.383
	C76.202,258.227,71.169,260.157,66.12,260.157z"/>
<g>
</g>
<g>
</g>
<g>
</g>
<g>
</g>
<g>
</g>
<g>
</g>
<g>
</g>
<g>
</g>
<g>
</g>
<g>
</g>
<g>
</g>
<g>
</g>
<g>
</g>
<g>
</g>
<g>
</g>
</svg>
